<svg xmlns="http://www.w3.org/2000/svg" width="900" height="500" viewBox="0 0 900 500">
  <!-- Generated from WORKBOARD.md by tools/workboard.py. Do not edit by hand. -->
  <!-- WB-002 -> WB-001 -->
  <!-- WB-003 -> WB-001 -->
  <!-- WB-003 -> WB-002 -->
  <!-- WB-004 -> WB-003 -->
  <!-- WB-005 -> WB-004 -->
  <style>
    text { font-family: system-ui, sans-serif; fill: #1f2937; }
    .muted { fill: #64748b; font-size: 13px; }
    .node { fill: #f8fafc; stroke: #334155; stroke-width: 1.5; }
    .active { fill: #dcfce7; }
    .blocked { fill: #fee2e2; }
    .done { fill: #e0f2fe; }
    .edge { stroke: #64748b; stroke-width: 1.4; marker-end: url(#arrow); }
  </style>
  <defs>
    <marker id="arrow" viewBox="0 0 10 10" refX="9" refY="5" markerWidth="6" markerHeight="6" orient="auto-start-reverse">
      <path d="M 0 0 L 10 5 L 0 10 z" fill="#64748b" />
    </marker>
  </defs>
  <text x="32" y="36" font-size="24" font-weight="700">Dependency Overview</text>
  <text x="32" y="62" class="muted">Source: WORKBOARD.md</text>
  <rect class="node done" x="80" y="100" width="270" height="48" rx="6" />
  <text x="94" y="121" font-size="14" font-weight="700">WB-001: WORKBOARD R1 を実装する</text>
  <text x="94" y="139" class="muted">Done / Workboard</text>
  <rect class="node done" x="80" y="172" width="270" height="48" rx="6" />
  <text x="94" y="193" font-size="14" font-weight="700">WB-002: WORKBOARD view を render する</text>
  <text x="94" y="211" class="muted">Done / Workboard</text>
  <rect class="node done" x="80" y="244" width="270" height="48" rx="6" />
  <text x="94" y="265" font-size="14" font-weight="700">WB-003: workflow contract を同期する</text>
  <text x="94" y="283" class="muted">Done / Workboard</text>
  <rect class="node done" x="80" y="316" width="270" height="48" rx="6" />
  <text x="94" y="337" font-size="14" font-weight="700">WB-004: public docs impact を triage する</text>
  <text x="94" y="355" class="muted">Done / Workboard</text>
  <rect class="node active" x="80" y="388" width="270" height="48" rx="6" />
  <text x="94" y="409" font-size="14" font-weight="700">WB-005: auditing gate を判断する</text>
  <text x="94" y="427" class="muted">Active / Workboard</text>
  <line class="edge" x1="80" y1="196" x2="350" y2="124" />
  <line class="edge" x1="80" y1="268" x2="350" y2="124" />
  <line class="edge" x1="80" y1="268" x2="350" y2="196" />
  <line class="edge" x1="80" y1="340" x2="350" y2="268" />
  <line class="edge" x1="80" y1="412" x2="350" y2="340" />
</svg>
